<svg xmlns="http://www.w3.org/2000/svg" xmlns:xlink="http://www.w3.org/1999/xlink" width="461.191" height="429" viewBox="0 0 461.191 429"><defs><style>.a{fill:none;}.b{fill:#98b9d3;}.c,.d,.u{fill:#fff;}.c{font-size:25px;font-family:AzoSans-Medium, Azo Sans;font-weight:500;}.c,.d{letter-spacing:-0.04em;}.d{font-size:12px;font-family:AzoSans-Light, Azo Sans;font-weight:300;}.e{fill:#7ba38b;}.f{clip-path:url(#a);}.g{fill:#9f7fc6;}.h{fill:#896cb7;}.i{fill:#6c4b9b;}.j{fill:#71b336;}.k{clip-path:url(#b);}.l{fill:#a3ce72;}.m{clip-path:url(#c);}.n{fill:#ffcccd;}.o{fill:#00864d;}.p{clip-path:url(#d);}.q{fill:#64bf77;}.r{clip-path:url(#e);}.s{fill:#9ec6af;}.t{fill:#fdffff;}</style><clipPath id="a"><rect class="a" width="81.164" height="91.552"/></clipPath><clipPath id="b"><rect class="a" width="62.229" height="49.033"/></clipPath><clipPath id="c"><rect class="a" width="31.675" height="43.251"/></clipPath><clipPath id="d"><rect class="a" width="48.251" height="91.704"/></clipPath><clipPath id="e"><rect class="a" width="65.375" height="34.074"/></clipPath></defs><rect class="b" width="344" height="429" transform="translate(59.121)"/><g transform="translate(98.121 243.001)"><text class="c" transform="translate(129 24.999)"><tspan x="-45.038" y="0">Clearing</tspan></text><text class="d" transform="translate(0 48.999)"><tspan x="45.384" y="12">Formulated for clear, blemish-free, </tspan><tspan x="91.476" y="32">look-at-me skin.</tspan></text></g><g transform="translate(142.093 92.852)"><g transform="matrix(-0.978, -0.208, 0.208, -0.978, 79.391, 147.756)"><path class="e" d="M13.6,11.018,0,13.1l.741,4.023,13.725.318,12.773,10.69,2.545-3.7L20.42,13.866l.4-13.088L17.663,0Z" transform="translate(51.38 63.424)"/><g transform="translate(0)"><g class="f"><path class="g" d="M52.258,72.279,16.036,53.226,0,27.9,11.889,11.86,14.317,1.142,25.6,0l8.981,8.107,12.687,2.33C47.207,11.214,61,19.771,61,19.771L59.813,40.888,64.6,56.49l-6.723,3.534Z" transform="translate(9.955 0)"/><path class="h" d="M60.022,58.292,44.536,64.434s-22.378-8.062-22.985-8.427S0,31.918,0,31.918L2.209,6.426,11.157,0,35.89,4.8l4.965,22.833,14.48,17.682Z" transform="translate(0 9.984)"/><path class="i" d="M40.476,25c.253-.911-6.729-6.9-7.5-7.527s-13.18-4.152-14.606-4.844S3.532,0,3.532,0L0,7.208,14.735,23.35l13.284,1.2,8.892,4.2Z" transform="translate(7.625 51.619)"/><path class="h" d="M15.82,26.9c-.754.018-4.752-5.052-5.163-5.61s-1.846-8.518-2.24-9.476S0,1.059,0,1.059L6.132,0,17.356,11.215l-.517,8.146,2.357,5.952Z" transform="translate(48.265 22.857)"/></g></g></g><g transform="translate(107.362 74.277) rotate(30)"><path class="j" d="M19.369,0,7.544,3.7l-6.406,15L0,33.852,11.878,47.436l20.148,1.6,18.53-10.248L62.229,27.565,59.223,14.993,50.176,3.4l-13.8-.366-4.06,1.382L30.051,20.938l-2.723-8.409Z" transform="translate(0 0)"/><g transform="translate(0 0)"><g class="k" transform="translate(0 0)"><path class="l" d="M16.357,0c.369,1.362.691,2.731,1,4.1l.228,1.029.056.257c.018.088.037.167.055.263a5.506,5.506,0,0,1,.08.565,5.254,5.254,0,0,1-.026,1.146,5.316,5.316,0,0,1-.1.568c-.048.2-.1.354-.142.525q-1.131,4.058-2.4,8.071c-.012.04-.029.088-.046.135l-.05.14-.051.14c-.017.046-.039.091-.059.137-.041.091-.08.182-.122.271l-.14.263c-.044.089-.1.171-.153.255s-.1.169-.165.248l-.177.239q-.095.114-.193.227a5.512,5.512,0,0,1-.877.8,5.269,5.269,0,0,1-1.023.593,5.394,5.394,0,0,1-1.123.359l-.144.031c-.048.009-.1.014-.146.022-.1.014-.2.028-.29.039l-.524.049-1.048.1-.533.044a5.408,5.408,0,0,1-.581.013,5.328,5.328,0,0,1-2.219-.563c-.086-.041-.169-.089-.252-.134L4.956,19.8,4.5,19.532,3.592,19C2.384,18.277,1.181,17.549,0,16.777c1.313.517,2.6,1.077,3.889,1.646l.962.432.48.218.239.109c.074.031.147.065.223.093a4.622,4.622,0,0,0,1.866.317,4.354,4.354,0,0,0,.469-.042l.513-.077,1.042-.152.521-.076.23-.042c.038-.007.076-.012.114-.021l.112-.029a4.173,4.173,0,0,0,.866-.313,4.406,4.406,0,0,0,1.445-1.112,4.3,4.3,0,0,0,.522-.75l.106-.2.092-.209c.015-.035.032-.069.045-.105l.038-.108.038-.108c.013-.036.025-.07.039-.114q1.27-4.014,2.674-7.986l.169-.481a4.35,4.35,0,0,0,.124-.459,4.835,4.835,0,0,0,.1-.951,4.633,4.633,0,0,0-.022-.482l-.058-.518-.114-1.048c-.145-1.4-.28-2.8-.367-4.207" transform="translate(13.795 20.491)"/><path class="l" d="M11.8,0c-.053.875-.153,1.739-.263,2.6s-.245,1.718-.388,2.573c-.073.427-.147.854-.227,1.279s-.162.85-.245,1.275c-.041.212-.086.424-.13.636-.01.05-.026.114-.039.172s-.026.119-.044.177c-.033.117-.066.235-.107.35a5.389,5.389,0,0,1-1.644,2.386c-.092.08-.192.151-.289.225l-.151.1c-.05.035-.1.069-.154.1-.105.062-.207.129-.315.185s-.217.112-.327.162a5.3,5.3,0,0,1-2.827.433c-.059-.007-.119-.012-.177-.022L4.3,12.6l-.175-.035-.172-.046-.172-.046c-.057-.017-.112-.038-.168-.056a3.25,3.25,0,0,1-.33-.126,5.023,5.023,0,0,1-.627-.316c-.1-.062-.2-.125-.292-.186L2.1,11.6c-.71-.5-1.415-1.011-2.1-1.563.823.3,1.622.647,2.416,1l.3.135c.1.043.188.077.282.116a4.826,4.826,0,0,0,.569.182c.095.028.193.044.289.064.048.009.1.021.145.028l.146.019.145.019.146.009.146.01c.048,0,.1,0,.146,0A4.725,4.725,0,0,0,6.94,11.1l.247-.139c.082-.046.159-.1.239-.153a1.344,1.344,0,0,0,.116-.081l.113-.084c.072-.061.148-.117.216-.182A4.572,4.572,0,0,0,9.139,8.625c.035-.087.063-.177.093-.267.016-.044.026-.091.039-.136s.025-.087.038-.143c.052-.21.1-.42.158-.629.109-.419.215-.838.331-1.255s.23-.835.35-1.251c.241-.832.494-1.662.766-2.487S11.473.811,11.8,0" transform="translate(15.456 20.412)"/><path class="l" d="M0,0C.606.988,1.168,1.995,1.72,3.006S2.8,5.04,3.323,6.066c.26.513.518,1.027.771,1.544.127.258.256.515.379.775l.094.194.047.1.043.085c.056.113.12.222.186.329a4.462,4.462,0,0,0,.991,1.123,4.52,4.52,0,0,0,.621.425l.748.429,1.488.871,1.472.881a4.548,4.548,0,0,0,1.41.541,4.41,4.41,0,0,0,.759.088c.064,0,.128,0,.192,0h.1l.108,0,.431-.012c.288-.009.575-.013.863-.019s.585-.009.837-.02a4.839,4.839,0,0,0,1.547-.367,5.528,5.528,0,0,0,.722-.375,5.793,5.793,0,0,0,.662-.5,5.906,5.906,0,0,0,.583-.606c.185-.222.365-.448.554-.668-.125.262-.258.518-.388.777a5.21,5.21,0,0,1-.482.748,5.436,5.436,0,0,1-.62.656,5.686,5.686,0,0,1-.738.539,5.146,5.146,0,0,1-1.731.649c-.319.054-.6.08-.882.115s-.571.068-.858.1l-.429.047-.107.012-.117.011c-.079.008-.159.012-.239.016a5.334,5.334,0,0,1-.958-.048,5.42,5.42,0,0,1-1.828-.6l-.2-.107-.188-.105-.376-.211-.752-.422-1.5-.858L5.8,11.768A5.492,5.492,0,0,1,3.772,9.722c-.079-.141-.153-.284-.219-.432L3.5,9.18l-.042-.1-.085-.2c-.114-.264-.223-.53-.334-.8-.223-.53-.44-1.063-.656-1.6-.43-1.067-.85-2.139-1.251-3.22S.346,1.105,0,0" transform="translate(32.947 20.568)"/><path class="l" d="M0,0C.275.244.538.5.8.755s.511.518.762.781c.5.527.982,1.066,1.456,1.613l.176.206.044.051.041.045.081.089.168.173c.059.054.116.11.177.162a4.98,4.98,0,0,0,.773.554c.137.078.278.15.42.217a4.659,4.659,0,0,0,.439.171c.075.023.149.05.225.07l.113.032.114.027c.076.02.153.032.23.047L6.074,5l.067.011.134.022,1.065.188c.354.069.709.134,1.062.206l1.039.214.118.023.119.015c.079.009.159.023.239.026s.161.014.241.017l.243,0a5.155,5.155,0,0,0,1.933-.408,5.7,5.7,0,0,0,.911-.489l.218-.151.211-.164c.143-.111.283-.231.43-.341-.091.161-.182.318-.281.474-.052.077-.1.155-.157.233s-.116.147-.175.222a4.752,4.752,0,0,1-.837.778,4.973,4.973,0,0,1-2.164.877,5.116,5.116,0,0,1-1.2.035c-.21-.017-.38-.039-.56-.063l-.537-.071c-.358-.048-.714-.1-1.071-.155L6.055,6.331l-.133-.023L5.855,6.3,5.78,6.28c-.1-.02-.2-.039-.3-.065l-.148-.037-.146-.044c-.1-.028-.194-.062-.29-.1a5.238,5.238,0,0,1-1.084-.554A5.259,5.259,0,0,1,2.891,4.7c-.069-.073-.134-.151-.2-.226s-.127-.156-.185-.237l-.086-.123-.043-.061-.038-.057L2.19,3.768c-.393-.607-.778-1.22-1.146-1.846C.861,1.609.679,1.294.5.974S.158.332,0,0" transform="translate(34.568 18.381)"/></g></g></g><g transform="translate(110.126 83.245) rotate(-169)"><g class="m"><path class="n" d="M.024.076C.055,0,.076-.018.088.018,0,.167-.024.2.024.076" transform="translate(1.521 18.586)"/><path class="n" d="M1.609,18.6c.793-1.37,6.664-12.9,6.664-12.9l7.514-4.564L23.37,0l8.305,9.875-.655,17.01L26.936,39.778,7.613,43.251S-.048,33.178,0,32.174c.045-.94,1.792-13.045,1.609-13.571M16.042,33.341l7.622-4.625.852-6.643L16.157,16.39l-.107,1.2-1.907,3.131-1.508,5.618Z" transform="translate(0 0)"/></g></g><g transform="translate(40.348 48.134) rotate(-86)"><path class="o" d="M24.273,20.416,46.93,48.9l1.321,17.133-.609,16.075L41.17,91.7l-11.235-.13L31,70.253,26.631,48.407,14.109,29.79,0,0Z" transform="translate(0)"/><g transform="translate(0 0)"><g class="p"><path class="q" d="M30.424,77.841c.537-1.793,1.039-3.593,1.531-5.395.248-.9.486-1.8.728-2.705s.473-1.806.71-2.709.465-1.808.694-2.712l.341-1.357.085-.342c.028-.119.058-.238.084-.357q.08-.358.147-.72a19.99,19.99,0,0,0,.318-2.922q.025-.736,0-1.474l-.015-.364-.017-.349-.036-.7q-.14-2.794-.306-5.587l-.17-2.792-.044-.7c-.006-.113-.017-.239-.027-.363l-.03-.372c-.024-.247-.055-.494-.082-.741s-.069-.493-.109-.738a21.524,21.524,0,0,0-1.779-5.689c-.111-.224-.218-.449-.335-.671l-.177-.331-.089-.165-.093-.163c-.126-.216-.248-.435-.383-.646l-.2-.319-.19-.3-1.52-2.347-1.528-2.342L26.4,29.137l-1.544-2.332-.387-.582-.194-.291c-.066-.1-.138-.206-.208-.308q-.425-.619-.9-1.2-.236-.292-.483-.575l-.124-.141-.121-.135-.234-.26-.938-1.037L19.382,20.2q-1.886-2.066-3.788-4.118T11.77,12Q9.847,9.964,7.9,7.949c-.65-.67-1.3-1.342-1.951-2.009s-1.305-1.335-1.965-2C2.673,2.616,1.35,1.3,0,0,1.105,1.51,2.237,3,3.377,4.477,3.945,5.219,4.522,5.953,5.1,6.69s1.155,1.467,1.732,2.2q1.738,2.2,3.5,4.37t3.541,4.334q1.779,2.16,3.577,4.3l1.8,2.14.9,1.068.226.266.109.128.1.124q.206.25.4.507.392.515.748,1.058c.06.091.116.179.177.275l.187.3.375.59,1.505,2.357L25.5,33.057,27.018,35.4l1.529,2.342.19.29.173.273c.118.18.225.368.335.554l.082.14.078.142.156.284c.1.191.2.385.3.576a19.765,19.765,0,0,1,1.65,4.923c.041.213.075.428.114.642s.063.43.09.646l.037.324c.012.108.025.214.036.333l.068.7.276,2.784q.284,2.783.586,5.564l.15,1.376q.066.658.087,1.321a19.14,19.14,0,0,1-.1,2.651c-.024.22-.052.44-.083.66-.015.11-.033.219-.05.329l-.056.343-.227,1.381Q32.215,65.36,32,66.743c-.142.923-.288,1.844-.426,2.768s-.278,1.847-.408,2.772c-.266,1.849-.52,3.7-.741,5.559" transform="translate(10.312 10.671)"/></g></g></g><g transform="translate(145.121 101.173) rotate(-119)"><g class="r"><path class="e" d="M47.694,0,31.377.2s-11.544.865-14.068,3.258S7.889,10.5,6.473,15.447,0,28.744,0,28.744l18.741-1.489L29.9,23.979s8.852-4.957,10.1-6.46S47.694,0,47.694,0" transform="translate(0 0.353)"/><path class="s" d="M0,21.188c1.583-1.422,3.212-2.781,4.853-4.123s3.3-2.655,4.977-3.953,3.365-2.57,5.063-3.836c.854-.626,1.7-1.26,2.56-1.879l1.285-.932,1.292-.923.093-.067.093-.035c.671-.253,1.345-.5,2.02-.743s1.349-.488,2.025-.729c1.351-.483,2.709-.949,4.068-1.41s2.726-.906,4.1-1.335S35.176.38,36.567,0c-1.286.653-2.585,1.27-3.89,1.872S30.06,3.058,28.745,3.635s-2.636,1.137-3.962,1.687c-.662.276-1.325.552-1.99.82s-1.328.542-2,.806l.186-.1L19.712,7.8l-1.278.942c-.85.631-1.711,1.246-2.567,1.87-1.72,1.234-3.445,2.462-5.191,3.661s-3.5,2.386-5.276,3.544-3.566,2.3-5.4,3.373" transform="translate(5.656 5.203)"/><path class="e" d="M1.267,0,.02,10.532s-.3,7.536,1.4,9.441S6.26,26.862,10.1,28.352s10.1,5.722,10.1,5.722l.419-12.244-1.667-7.57S15.745,7.98,14.648,7,1.267,0,1.267,0" transform="translate(44.751 0)"/><path class="s" d="M13.839,26.025c-.984-1.158-1.922-2.347-2.846-3.546s-1.826-2.413-2.715-3.636-1.762-2.456-2.625-3.7S3.942,12.654,3.1,11.4l-.051-.077-.022-.073Q2.6,9.855,2.2,8.46T1.4,5.66q-.382-1.4-.74-2.817L.488,2.135.32,1.425Q.15.716,0,0,.3.668.576,1.342l.28.674.273.676Q1.67,4.044,2.182,5.407t1,2.733q.489,1.37.957,2.747l-.074-.15q1.307,1.853,2.579,3.729t2.5,3.782q1.23,1.905,2.412,3.843c.785,1.294,1.556,2.6,2.281,3.933" transform="translate(49.511 4.101)"/></g></g><g transform="translate(55.739 3.925) rotate(59)"><path class="t" d="M0,3.5,1.068,9.7l4.7,1.65,4.171-1.188L9.8,4.572,4.217,0Z" transform="translate(11.2 25.426)"/><path class="u" d="M3,0,0,6.3,2.794,8.865l6.065-.584L10.226,3.3,8.9.026Z" transform="translate(5.377 0)"/><path class="t" d="M0,6.3,2.794,8.865l6.065-.584L10.226,3.3,8.9.026,3,0Z" transform="translate(0 17.689)"/></g><g transform="matrix(-0.951, -0.309, 0.309, -0.951, 165.793, 140.395)"><path class="t" d="M0,3.5,1.068,9.7l4.7,1.65,4.171-1.188L9.8,4.572,4.217,0Z" transform="translate(11.2 25.426)"/><path class="u" d="M3,0,0,6.3,2.794,8.865l6.065-.584L10.226,3.3,8.9.026Z" transform="translate(5.377)"/><path class="t" d="M0,6.3,2.794,8.865l6.065-.584L10.226,3.3,8.9.026,3,0Z" transform="translate(0 17.689)"/></g></g></svg>