<svg xmlns="http://www.w3.org/2000/svg" xmlns:xlink="http://www.w3.org/1999/xlink" width="343" height="429" viewBox="0 0 343 429"><defs><style>.a{fill:none;}.b{fill:#ff8000;}.c,.d{fill:#fff;letter-spacing:-0.04em;}.c{font-size:26px;font-family:AzoSans-Medium, Azo Sans;font-weight:500;}.d{font-size:12px;font-family:AzoSans-Light, Azo Sans;font-weight:300;}.e{fill:#ffdf09;}.f{clip-path:url(#a);}.g{fill:#ffc800;}.h{fill:#83af15;}.i{fill:#fff49e;}.j{clip-path:url(#b);}.k{fill:#9cd94a;}.l{fill:#d2f299;}.m{clip-path:url(#c);}.n{fill:#ffa557;}.o{fill:#498a22;}.p{fill:#ff8b26;}.q{clip-path:url(#d);}.r{fill:#fff6c2;}.s{clip-path:url(#e);}.t{fill:#e8ffc0;}.u{fill:#b3d178;}.v{clip-path:url(#f);}.w{fill:#ddefb6;}</style><clipPath id="a"><rect class="a" width="54.6" height="46.88"/></clipPath><clipPath id="b"><rect class="a" width="52.944" height="96.35" transform="translate(0 0)"/></clipPath><clipPath id="c"><rect class="a" width="62.195" height="62.362" transform="translate(0 0)"/></clipPath><clipPath id="d"><rect class="a" width="54.995" height="50.891"/></clipPath><clipPath id="e"><rect class="a" width="35.728" height="37.961"/></clipPath><clipPath id="f"><rect class="a" width="57.755" height="35.981"/></clipPath></defs><rect class="b" width="343" height="428"/><g transform="translate(39 243.001)"><text class="c" transform="translate(130 25.999)"><tspan x="-66.612" y="0">Illuminating</tspan></text><text class="d" transform="translate(0 48.999)"><tspan x="51.366" y="12">Formulated for bright, hydrated, </tspan><tspan x="80.358" y="32">oh-so-beautiful skin.</tspan></text></g><g transform="translate(77.589 87.72)"><g transform="matrix(0.259, 0.966, -0.966, 0.259, 119.319, 12.588)"><path class="e" d="M19.732,0,.266,8.068,0,22.173,7.592,37l5.5,6.284,13.267,2.162L32.6,43.114,40.52,46.88,54.6,38.193,48.779,20.632,34.975,5.226Z" transform="translate(0)"/><g transform="translate(0 0)"><g class="f"><path class="g" d="M2.969,11.984,0,2.112,9.636,0l8.68,5.642,9.526,2.34,9.851,10.767-4.33,11.36s-9.653,1.256-11.424-.1S4.128,19.18,4.128,19.18Z" transform="translate(4.722 11.042)"/><path class="h" d="M20.138,16.542,20.98,12.3,12.925,5.013,1.058,0,0,1.507,4.955,11.881,13.134,17.4Z" transform="translate(4.799 27.218)"/><path class="i" d="M0,5.827c1.233-.294,2.472-.551,3.714-.8S6.2,4.555,7.446,4.337L7.68,4.3l.117-.02.109-.021a2.632,2.632,0,0,0,.819-.326,2.826,2.826,0,0,0,.357-.262L9.8,3.044l.358-.311.361-.308C11.477,1.6,12.446.786,13.44,0c-.89.9-1.806,1.777-2.73,2.642l-.346.325-.349.322-.7.643a2.906,2.906,0,0,1-.85.538,2.986,2.986,0,0,1-.483.15l-.123.024-.117.021-.234.041q-1.87.327-3.746.612c-1.251.191-2.5.368-3.764.51" transform="translate(33.671 29.76)"/><path class="i" d="M0,7.745c.589-.618,1.2-1.209,1.825-1.79S3.079,4.8,3.719,4.244l.241-.209.06-.052.055-.05c.036-.034.072-.068.106-.1a2.608,2.608,0,0,0,.364-.47c.026-.042.05-.086.074-.13l.034-.067.036-.071.144-.285q.144-.285.292-.568c.393-.755.8-1.5,1.234-2.239-.3.8-.628,1.586-.969,2.366q-.128.292-.259.583L5,3.24l-.033.073-.036.076c-.025.051-.051.1-.079.15a2.859,2.859,0,0,1-.4.546c-.039.042-.079.081-.121.12l-.063.057-.06.053-.239.211Q3,5.365,2.017,6.175C1.358,6.714.691,7.244,0,7.745" transform="translate(27.281 15.911)"/><path class="i" d="M0,6.5c.25-.581.532-1.143.824-1.7s.6-1.1.916-1.647.644-1.078.985-1.606S3.418.5,3.8,0c-.25.581-.532,1.144-.824,1.7s-.6,1.1-.916,1.646-.645,1.078-.985,1.606S.384,6,0,6.5" transform="translate(24.637 15.653)"/><path class="i" d="M0,9.819C.3,8.953.645,8.1.993,7.258s.715-1.684,1.09-2.518l.284-.624L2.511,3.8l.072-.156c.024-.052.047-.1.075-.159s.056-.108.087-.161l.089-.149.178-.293q.178-.293.358-.585c.483-.777.974-1.549,1.5-2.3-.39.831-.813,1.642-1.245,2.449q-.163.3-.328.6l-.166.3L3.049,3.5q-.038.071-.071.144L2.7,4.267l-.28.626Q1.86,6.144,1.26,7.378C.857,8.2.447,9.017,0,9.819" transform="translate(19.822 9.916)"/><path class="i" d="M0,9.823c.1-.877.242-1.746.391-2.614S.708,5.479.886,4.617l.136-.646a2.869,2.869,0,0,1,.233-.662c.026-.052.054-.1.083-.154s.061-.1.09-.146l.178-.278q.178-.278.359-.554C2.447,1.441,2.938.71,3.463,0c-.391.792-.815,1.563-1.248,2.33q-.163.287-.328.573l-.166.285c-.029.049-.054.092-.078.138s-.047.091-.069.138a2.61,2.61,0,0,0-.191.584l-.131.646Q.984,5.985.678,7.269C.47,8.124.254,8.977,0,9.823" transform="translate(15.457 6.343)"/><path class="i" d="M0,12.05c.341-1.01.717-2,1.1-3S1.89,7.079,2.3,6.1l.311-.734L2.771,5l.039-.091q.018-.043.035-.086c.022-.058.043-.117.061-.176s.035-.119.049-.18.026-.125.04-.19l.081-.39q.081-.39.166-.78C3.469,2.067,3.7,1.03,3.979,0c-.12,1.059-.279,2.111-.448,3.16q-.064.394-.131.787l-.067.393c-.012.065-.022.13-.036.2s-.031.138-.05.206-.041.135-.065.2q-.018.05-.038.1l-.038.093-.152.369-.307.736Q2.028,7.714,1.372,9.168C.932,10.136.484,11.1,0,12.05" transform="translate(10.633 5.072)"/><path class="i" d="M0,7.654c.854-.637,1.729-1.242,2.609-1.839S4.38,4.638,5.275,4.066l.673-.427.338-.212.084-.053.078-.051c.051-.035.1-.071.151-.11s.1-.078.143-.12.093-.088.141-.134l.288-.275q.288-.275.579-.548C8.527,1.411,9.31.692,10.121,0c-.7.8-1.429,1.578-2.164,2.346q-.276.288-.554.573L7.124,3.2c-.047.047-.092.095-.144.145s-.1.1-.158.141-.111.088-.168.129l-.088.06-.084.054-.334.217-.671.431q-1.344.857-2.71,1.681C1.855,6.609.938,7.148,0,7.654" transform="translate(31.198 22.534)"/></g></g></g><g transform="matrix(0.921, -0.391, 0.391, 0.921, 0, 20.687)"><g class="j" transform="translate(0 0)"><path class="k" d="M8.726,88.912c1.9-.658,8.832-16.811,9.045-20.111s-3.5-36.4-3.5-36.4L.172,0S-.341,18.482.406,19.538s7.4,30.54,7.4,30.54L6.1,77.723l-.9,18.626Z" transform="translate(35.164 0)"/><path class="l" d="M36,87.259C34.543,85.967,16.6,63.3,15.462,61.7s-13.5-32.958-13.5-32.958L0,7.757,1.192,0l9.762,26.091L24.885,55.306,37.57,77.427Z" transform="translate(0 1.797)"/><path class="l" d="M11.182,68.638s5.446-14.172,5.432-17.53S14.83,26.855,14.83,26.855,5.433,8.091,4.248,6.3-.075-.655,0,.069,7.287,35.5,7.287,35.5l3.5,22.427Z" transform="translate(23.531 18.264)"/><path class="k" d="M1.786,0S-.2,7.8.016,9.577,2.445,22.331,2.445,22.331,8.529,31.773,9.261,32.66s2.7,3.453,2.611,3.073-6-18.383-6-18.383L2.651,5.656Z" transform="translate(22.427 38.223)"/></g></g><g transform="translate(142.602 137.282) rotate(163)"><g class="m" transform="translate(0)"><path class="n" d="M39.3,62.362S58.8,43.813,58.812,42.055s4.258-18.469,3.219-19.846-5.8-10.948-10.462-14.834S33.974-1.7,29.572.543,8.98,12.316,8.98,12.316-2.055,34.972.34,39.387s13.78,13.56,13.78,13.56L39.3,62.362" transform="translate(0 0)"/><path class="o" d="M7.861.532l.5,8.32.74,4.795L7.694,17.253,4.4,19.54,0,17.591s.561-4.066.526-4.485a52.4,52.4,0,0,1,.561-5.9c.181-.332,2.476-4.878,2.476-4.878L7.273,0Z" transform="translate(19.082 39.329)"/><path class="o" d="M14.953,3.843,3.415,0,0,4.133l.39,2.9L2.849,9.3S6.7,9.112,7.023,9.056s4.371.259,5.294-.679S16.161,4.9,16.161,4.9L14.953,3.843" transform="translate(7.756 31.856)"/><path class="p" d="M0,3.421.97,5.064l2.378.09L4.738,2.544,4.282.417S3.042-.149,2.55.038A11.813,11.813,0,0,0,.586,2Z" transform="translate(47.263 20.684)"/><path class="p" d="M.849,4.982l2.011,2L5.983,5.69,6.91,3.471,5.956,1.191,3.9,0,2.108.6.568,1.684,0,3.5Z" transform="translate(43.761 14.034)"/><path class="p" d="M0,3.346l1.58,1.4,1.45,0L4.136,2.3,2.376,0,.912.73Z" transform="translate(46.259 8.578)"/><path class="p" d="M0,1.369.693,2.951,2.34,2.713l.377-1.25L1.956.142.7,0Z" transform="translate(38.036 10.018)"/><path class="p" d="M0,1.552.5,3.889l2.481.6,1.48-1.673L4.8.881,2.719,0Z" transform="translate(40.59 6.354)"/><path class="p" d="M0,.831.646,2.5l1.183-.436L1.9.162.7,0Z" transform="translate(40.833 12.956)"/><path class="p" d="M0,1.655,1.842,3.462l1.364-1.34L2.6.2,1.462,0Z" transform="translate(36.924 5.81)"/><path class="p" d="M0,1.045.752,3.339,1.693,1.7,1.575.383.253,0Z" transform="translate(41.627 17.083)"/><path class="p" d="M0,1.853,1.732,3.08l1.183-1.5L1.811.128.211,0Z" transform="translate(28.997 5.375)"/><path class="p" d="M0,1.246l1.013,1.63,1.442-.818L1.895.748.777,0Z" transform="translate(34.146 4.488)"/><path class="p" d="M.027,3.659,1.818,4.677l1.72-1.054L4.194,1.55,2.769,0,.717.4,0,1.815Z" transform="translate(32.646 9.047)"/><path class="p" d="M0,1.185,1.394,3.136,2.548,1.612,2,0,.823.037Z" transform="translate(47.458 29.595)"/><path class="p" d="M.084,2.5l.55.688a.361.361,0,0,0,.577-.038l.62-.814a.457.457,0,0,0,.081-.39l-.4-1.51A.351.351,0,0,0,1.273.182L.712.014a.417.417,0,0,0-.5.38L0,2.2a.406.406,0,0,0,.081.3" transform="translate(33.789 32.653)"/><path class="p" d="M.361,1.576l.659.537a.388.388,0,0,0,.6-.24l.222-.748A.4.4,0,0,0,1.728.694L.972.075A.338.338,0,0,0,.655.016L.3.123A.452.452,0,0,0,.019.678L.245,1.4a.365.365,0,0,0,.116.175" transform="translate(41.948 22.94)"/><path class="p" d="M.076,1.794l.539.723a.338.338,0,0,0,.4.113l.795-.3a.446.446,0,0,0,.269-.311l.209-.833A.412.412,0,0,0,2.2.819l-.616-.7A.343.343,0,0,0,1.154.049L.548.39A.448.448,0,0,0,.357.608l-.321.769a.427.427,0,0,0,.041.417" transform="translate(40.862 26.234)"/><path class="p" d="M.159,1.76.846,2.3a.368.368,0,0,0,.519-.093l.5-.646a.457.457,0,0,0,.082-.393c-.089-.332-.272-.937-.426-1A6.244,6.244,0,0,0,.75,0a.39.39,0,0,0-.37.157L.1.527a.465.465,0,0,0-.1.3l.019.645a.382.382,0,0,0,.14.292" transform="translate(44.583 23.606)"/><path class="p" d="M.09.705l.292.345c.232.275.68.045.665-.342A.394.394,0,0,0,.96.471L.669.122A.375.375,0,0,0,.038.268l0,0A.423.423,0,0,0,.09.705" transform="translate(41.69 21.011)"/><path class="p" d="M.531,3.709l2.457-.84L3.33.5.832,0,0,2.2Z" transform="translate(34.444 20.01)"/><path class="p" d="M.3,1.915,1.74,3.381,2.748,2.345l-.1-1.74L1.1,0,0,.871Z" transform="translate(37.689 17.313)"/><path class="p" d="M.023,1.208l1.02.489.849-.514L1.344,0,0,.075Z" transform="translate(38.721 15.027)"/><path class="p" d="M0,1.5l1.117.569L1.882.239.42,0Z" transform="translate(33.997 15.67)"/><path class="p" d="M0,1.942l1.273.516L2.406.527,1.143,0,.015.738Z" transform="translate(32.426 18.776)"/><path class="p" d="M0,1.907l1.372.5L2.9.678.885,0,.137.81Z" transform="translate(34.547 24.377)"/></g></g><g transform="matrix(0.53, -0.848, 0.848, 0.53, 0.171, 119.088)"><g class="q"><path class="i" d="M16.78.959,4.667,9.53S-.622,28.025.061,28.674,6.373,44.594,6.373,44.594s15.013,6.2,15.525,6.3,24.737-8.124,25.761-9.045S54.995,20.685,54.995,19.2,31.622,0,31.622,0Z" transform="translate(0 0)"/><path class="e" d="M10.748,19.582,0,3S3.753-.109,4.436,0,18.254,0,18.254,0Z" transform="translate(14.05 2.594)"/><path class="e" d="M0,17.916,7.848,0,21.155,8.886Z" transform="translate(26.333 5.596)"/><path class="e" d="M0,8.126,21.185,0,24.6,2.436l-2.9,14.9Z" transform="translate(27.497 16.767)"/><path class="e" d="M3.156,0l20.3,10.266v3.108L0,21.352Z" transform="translate(23.177 26.716)"/><path class="e" d="M19.363,16.786,8.359,0,3.071,3.9,0,20.71Z" transform="translate(3.814 7.032)"/><path class="e" d="M20.3,0,0,4.234l4.436,12.4,12.113,5.5Z" transform="translate(3.814 25.754)"/><path class="r" d="M6.312,2.02,3.071,0,0,.818l3.156,3.6H7.677Z" transform="translate(11.655 16.996)"/><path class="r" d="M0,5.22,1.877.67,6.142,0,7.677.67,5.258,4.909,1.877,5.22Z" transform="translate(31.068 13.251)"/><path class="r" d="M1.951,8.509,0,4.545,1.119.639,2.841,0l1.3,2.789L4.052,6.34Z" transform="translate(26.333 30.167)"/></g></g><g transform="matrix(0.719, -0.695, 0.695, 0.719, 116.749, 71.247)"><g class="s"><path class="t" d="M.049.081C.1.027.1,0,.067,0-.013.131-.024.166.049.081" transform="translate(28.139 32.117)"/><path class="t" d="M28.205,32.117c.734-1.2,7.266-10.552,7.266-10.552l.257-8.773-2.5-7.768L21.653,0,8.42,5.968,0,14,5.91,33.969S17.359,38.3,18.136,37.94c.727-.338,9.57-5.837,10.07-5.823" transform="translate(0 0)"/><path class="l" d="M0,0,4.428,2.227l.863,1.74L4.639,6l-2.87-.445L.833,3.669Z" transform="translate(21.857 18.972)"/><path class="l" d="M4.283,4.527,3.054,2.052.236,0S-.058,3.682.01,4.324a16.442,16.442,0,0,0,1.266,2.55c.158.453,2.136.4,2.188.3S4.988,5.947,4.988,5.947Z" transform="translate(17.784 20.174)"/><path class="l" d="M0,7.35,3.754,5.659l.613-3.744L3.416,0,1.721.064.275,1.764.434,3.9Z" transform="translate(18.286 9.43)"/><path class="l" d="M6.725,4.653,5.006,1.189,2.6,0,0,1.172l1.094,2.55.891,1.45,3.257.149Z" transform="translate(10.314 11.813)"/><path class="l" d="M5.9.747,2.222,0,.032.986,0,3.4s3.6,1.352,3.652.977A40.706,40.706,0,0,1,5.9.747" transform="translate(9.532 18.847)"/><path class="l" d="M0,2.621,2.984.378,6.627,0l-.38,2.866-2.4,1.08-2.056-.5Z" transform="translate(22.223 14.06)"/></g></g><g transform="translate(182.278 83.731) rotate(99)"><path class="u" d="M17.883,0,0,5.269,13.316,21.825,23.969,30.9l10.958,5.077,22.828-2.259-.4-9.458L47.3,10,34.493,1.063Z" transform="translate(0 0)"/><g class="v"><path class="w" d="M0,0C1.771.139,3.536.323,5.3.5L6.623.65c.221.025.439.047.662.076l.672.091a18.083,18.083,0,0,1,2.634.642A17.948,17.948,0,0,1,13.1,2.484c.2.1.408.2.605.309l.594.33c.387.236.778.465,1.15.723s.74.521,1.106.788c.353.283.713.558,1.051.858s.672.606,1,.913l.479.48c.162.161.316.321.468.481l.916.964.458.482c.152.155.3.314.456.466.3.31.622.606.942.9s.652.573.99.846a22.982,22.982,0,0,0,2.111,1.523c.368.23.739.455,1.12.663.19.107.38.206.575.31l.59.307c3.149,1.631,6.283,3.294,9.373,5.046-3.274-1.377-6.5-2.843-9.719-4.341l-.6-.28c-.2-.1-.409-.192-.61-.295-.4-.2-.8-.426-1.19-.653a21.759,21.759,0,0,1-2.24-1.531,23.534,23.534,0,0,1-2.039-1.787c-.163-.156-.318-.321-.477-.482l-.46-.48-.92-.96c-.153-.162-.305-.322-.458-.474l-.458-.463c-.317-.3-.628-.6-.958-.882s-.662-.56-1-.837c-.347-.26-.688-.528-1.047-.772s-.72-.483-1.085-.717l-.56-.33c-.185-.113-.38-.208-.569-.314l-.287-.154-.292-.142-.293-.142-.146-.071L11.535,2.7l-.6-.263L10.333,2.2a19.41,19.41,0,0,0-2.5-.735L7.2,1.335c-.215-.042-.436-.077-.654-.115L5.231.991C3.486.674,1.74.359,0,0" transform="translate(11.791 9.982)"/></g></g></g></svg>