<svg xmlns="http://www.w3.org/2000/svg" xmlns:xlink="http://www.w3.org/1999/xlink" width="343" height="429" viewBox="0 0 343 429"><defs><style>.a{fill:none;}.b{fill:#90629b;}.c,.d{fill:#fff;letter-spacing:-0.04em;}.c{font-size:26px;font-family:AzoSans-Medium, Azo Sans;font-weight:500;}.d{font-size:12px;font-family:AzoSans-Light, Azo Sans;font-weight:300;}.e{fill:#f2f1ed;}.f{fill:#695241;}.g{fill:#e0dfd9;}.h{fill:#b5cc84;}.i{clip-path:url(#a);}.j{fill:#e3f4b6;}.k{clip-path:url(#b);}.l{fill:#ffd13e;}.m{fill:#47423b;}.n{fill:#ffe8ae;}.o{clip-path:url(#c);}.p{fill:#b4d9db;}.q{fill:#ffbbbe;}.r{clip-path:url(#d);}.s{fill:#b891c1;}</style><clipPath id="a"><rect class="a" width="69.156" height="96.348"/></clipPath><clipPath id="b"><rect class="a" width="54.592" height="56.588" transform="translate(0 0)"/></clipPath><clipPath id="c"><rect class="a" width="25.822" height="115.632"/></clipPath><clipPath id="d"><rect class="a" width="35.245" height="36.386"/></clipPath></defs><rect class="b" width="343" height="428"/><g transform="translate(39 243.001)"><text class="c" transform="translate(131 25.999)"><tspan x="-51.545" y="0">Soothing</tspan></text><text class="d" transform="translate(0 48.999)"><tspan x="40.704" y="12">Formulated for soothed, smoothed, </tspan><tspan x="87.288" y="34">what-a-relief skin.</tspan></text></g><g transform="translate(93.167 78.342)"><g transform="translate(11.078 143.75) rotate(-97)"><path class="e" d="M45.047,1.478,43.4,14.237,40.69,19.158,25.792,25.6l-9,11.254-13.929.1L0,44.9l19.937.984L31.448,33.771,49.181,22.643,57.528,0Z" transform="translate(1.17 0)"/><path class="f" d="M58.7,0,50.351,22.643,32.618,33.771,21.107,45.885,1.17,44.9,0,48.652l23.048.142,8.244-7.263L35.7,36.018,52.583,24.807,62.272.486Z" transform="translate(0 0)"/><path class="g" d="M8.661,5.742,4.141,23.978,0,35.467l13.929-.1,9-11.254,14.9-6.438,2.714-4.921L42.179,0,25.037,2.03,12.809.552Z" transform="translate(4.038 1.478)"/></g><g transform="translate(0 29.227) rotate(-25)"><path class="h" d="M10.071,2.26,4.24,2.736,0,7.507l2.819,3.952,9.868,2.176,7.521-2.08,9.508-3.291,4.129-6.842L25.721,3.668,17.013,0Z" transform="translate(24.454 82.713)"/><g transform="translate(0 0)"><g class="i" transform="translate(0 0)"><path class="h" d="M6.26,57.332l17.8-3.655,8.2-6.81-1.048-3.4,2.514-7.621L40.205,28.9l2.867-7.515,4.14-6.4-1.3-5.926L45.664,0,34.442,14.868l-8.135,6.977s-7.149,13.879-7.1,13.876S7.138,40.146,7.138,40.146L3.231,53.326,0,59.285Z" transform="translate(21.944 24.057)"/><path class="h" d="M7.973,78.026,2.349,57.265l2.958-9.408L0,33.526.441,23.394l7.207-9.118L10.484,6.4,7.959,0,19.5,2.111l4.655,15.283-2,10.483,2.783,9.179L19.385,54.6l.449,9.606-5.466,10.5Z" transform="translate(9.247 0)"/><path class="h" d="M0,2.371,6.829,3.753a14.865,14.865,0,0,0,8.557-.8L22.623,0" transform="translate(29.384 88.334)"/><path class="j" d="M0,2.371c1.959.192,3.9.478,5.834.793l.725.121.362.062.353.054.176.027.177.021.354.043.355.031c.059,0,.118.011.177.015l.178.009a15.545,15.545,0,0,0,2.838-.091c.118-.011.235-.031.352-.047s.235-.032.351-.054c.233-.043.467-.082.7-.137.116-.026.233-.046.347-.077l.345-.087c.116-.027.228-.064.342-.1s.229-.063.341-.1l.339-.109c.114-.035.224-.079.336-.119.221-.079.452-.167.681-.253l.688-.258.69-.253C18.88,1.194,20.733.552,22.623,0c-1.737.926-3.512,1.762-5.3,2.57l-.67.3-.672.3c-.225.1-.445.2-.682.292-.117.046-.232.1-.351.14l-.355.13a14.271,14.271,0,0,1-2.947.687l-.377.041c-.126.013-.252.019-.378.029-.252.022-.5.026-.757.034-.126,0-.253,0-.379,0s-.253,0-.379-.009L9,4.493c-.126-.008-.252-.021-.377-.032l-.188-.017c-.063-.006-.125-.015-.188-.023L7.87,4.373c-.125-.019-.249-.04-.373-.062l-.186-.032L7.126,4.24l-.37-.078L6.4,4.079l-.715-.171C3.779,3.447,1.88,2.956,0,2.371" transform="translate(29.384 88.334)"/><path class="h" d="M0,45.947,11.411,40a14.864,14.864,0,0,0,6.01-5.758l5.628-9.762a14.865,14.865,0,0,1,1.759-2.442l6.429-7.245A14.866,14.866,0,0,0,34.169,9.78L37.546,0" transform="translate(27.205 33.048)"/><path class="j" d="M0,45.947c2.222-1.278,4.464-2.518,6.7-3.76l3.37-1.845.843-.46c.14-.076.285-.152.42-.229s.273-.152.408-.232a14.17,14.17,0,0,0,1.546-1.057,14.611,14.611,0,0,0,1.395-1.244,14.939,14.939,0,0,0,1.228-1.4,14.8,14.8,0,0,0,1.034-1.55c.079-.131.158-.273.237-.412l.237-.418L17.9,32.5l1.9-3.338,1.913-3.331.963-1.665a15.17,15.17,0,0,1,1.11-1.641c.2-.261.415-.514.634-.762l.642-.717,1.283-1.43,2.574-2.852,1.29-1.423.648-.709c.11-.119.21-.234.315-.35s.2-.236.3-.358a14.777,14.777,0,0,0,1.978-3.176c.131-.285.254-.573.366-.866.056-.145.112-.295.167-.446l.166-.451.665-1.8c.9-2.4,1.795-4.8,2.733-7.185-.734,2.456-1.51,4.9-2.283,7.34l-.589,1.829-.147.457c-.049.152-.1.3-.151.46-.1.31-.22.615-.344.918a14.257,14.257,0,0,1-.872,1.759,15.067,15.067,0,0,1-1.1,1.633c-.1.131-.2.258-.306.386s-.212.254-.316.373l-.627.728-1.259,1.45L27.03,20.228l-1.267,1.444-.633.72c-.2.234-.4.473-.588.72a14.433,14.433,0,0,0-1.036,1.542l-.956,1.663L20.626,29.64,18.69,32.959l-.486.828-.243.414c-.081.138-.16.275-.248.417a14.821,14.821,0,0,1-1.128,1.622A15.085,15.085,0,0,1,15.255,37.7a15.393,15.393,0,0,1-1.508,1.268,14.933,14.933,0,0,1-1.655,1.061c-.143.079-.29.153-.434.23s-.287.145-.43.218l-.86.428-3.444,1.7c-2.3,1.125-4.6,2.252-6.923,3.34" transform="translate(27.205 33.048)"/><path class="h" d="M.288,64.86,0,50.491,4.608,33.6l.186-16.3L7.151,5.782,5.552,0" transform="translate(19.471 7.984)"/><path class="j" d="M.637,64.86q-.105-1.795-.19-3.59c-.062-1.2-.111-2.394-.165-3.591s-.1-2.394-.147-3.591S.039,51.7,0,50.5v-.046L.014,50.4l1.094-4.238,1.114-4.233.561-2.115L3.349,37.7l1.142-4.225-.017.122.049-4.074.061-4.074.073-4.074c.03-1.358.054-2.716.09-4.073v-.044l.007-.031.629-2.873c.209-.958.419-1.915.635-2.871l.645-2.87c.215-.957.438-1.911.657-2.867l0,.086L6.96,4.376,6.6,2.918,6.249,1.46,5.9,0l.452,1.431L6.8,2.864,7.241,4.3l.436,1.436.012.038-.009.048c-.174.965-.344,1.931-.522,2.895l-.534,2.892c-.176.964-.36,1.927-.543,2.89l-.55,2.889.008-.075c.005,1.358,0,2.716,0,4.074l-.019,4.074-.032,4.074L5.44,33.607v.062l-.016.059-1.162,4.22-.585,2.109-.591,2.107-1.19,4.212L.685,50.583l.012-.1c.01,1.2.008,2.4.01,3.594s0,2.4,0,3.594S.7,60.067.683,61.266.66,63.662.637,64.86" transform="translate(19.122 7.984)"/><path class="h" d="M.171,7.325,2.935,10.99a14.543,14.543,0,0,1,2.95.293C6.232,11.518,8.119,9.6,8.119,9.6L9.312,5.606S8.6,1.8,8.585,1.75,5.845,0,5.845,0L2.833.537s-1.4,1.7-1.73,2.292S0,4.989,0,4.989Z" transform="translate(41.322 32.383)"/><path class="h" d="M4.817.011l-3.5,2.363A23.033,23.033,0,0,1,.072,5.126c-.285.311.362,2.207.362,2.207L2.75,8.71s2.864-.422,2.9-.436S7.828,5.811,7.828,5.811l.7-2.865a15.313,15.313,0,0,0-.958-1.772C7.284.826,6.48,0,6.48,0Z" transform="translate(50.357 73.51)"/><path class="h" d="M.171,7.325,2.935,10.99a14.54,14.54,0,0,1,2.95.293C6.232,11.518,8.119,9.6,8.119,9.6L9.312,5.606S8.6,1.8,8.585,1.75,5.845,0,5.845,0L2.833.537S1.435,2.24,1.1,2.829,0,4.989,0,4.989Z" transform="translate(32.906 43.909)"/><path class="h" d="M.579,1.136,0,4.381A14.872,14.872,0,0,1,1.07,6.435c.032.32,1.7.815,1.7.815L5.12,6.481S6.607,4.534,6.622,4.5s-.3-2.483-.3-2.483L4.835.247A15.445,15.445,0,0,0,3.058,0C2.648.012,1.6.115,1.6.115Z" transform="translate(55.883 63.59)"/><path class="h" d="M.171,7.325,2.936,10.99a14.542,14.542,0,0,1,2.95.293C6.232,11.518,8.119,9.6,8.119,9.6L9.312,5.606S8.6,1.8,8.585,1.75,5.845,0,5.845,0L2.833.537s-1.4,1.7-1.73,2.292S0,4.989,0,4.989Z" transform="translate(0 43.689)"/><path class="h" d="M4.817.011l-3.5,2.363A23.023,23.023,0,0,1,.072,5.126c-.285.311.362,2.207.362,2.207L2.75,8.71s2.864-.422,2.9-.436S7.828,5.811,7.828,5.811l.7-2.865a15.309,15.309,0,0,0-.958-1.772C7.284.826,6.48,0,6.48,0Z" transform="translate(59.722 84.083)"/></g></g></g><g transform="matrix(0.719, 0.695, -0.695, 0.719, 116.509, 4.519)"><g class="k" transform="translate(0 0)"><path class="l" d="M0,25.09,4.51,37.414l10.763,12L31.8,56.588s13.187-12.277,15.428-13.1,7.364-15.956,7.364-15.956l-9.841-13.87L37.106,0,17.829.142,8.244,5.772Zm20.806-4.2,8.165-2.472,6.213,6.529,1.373,12.311-11.12,7.028L14.36,40.119l.906-12.873Z" transform="translate(0 0)"/><path class="m" d="M19.934,17.909l1.512-9.244S17.893,3.521,17.754,2.6,12.162,0,12.162,0L4.64,1.86S.045,7.24,0,7.326s1.262,7.187,1.262,7.187l5,5.319a57.968,57.968,0,0,0,5.778.973c1.327.029,4.71-.112,4.71-.112Z" transform="translate(11.075 20.012)"/><path class="n" d="M2.2,8.432C2.04,8.1,1.9,7.758,1.772,7.417s-.251-.685-.366-1.03Q1.064,5.351.79,4.3T.306,2.171C.238,1.814.176,1.455.123,1.094S.024.369,0,0C.159.334.3.673.427,1.014s.251.685.366,1.03q.343,1.036.616,2.091t.483,2.125c.068.357.131.716.184,1.078s.1.725.124,1.093" transform="translate(27.296 43.733)"/><path class="n" d="M0,0C.248.281.475.574.7.87s.436.6.645.9q.625.913,1.188,1.863T3.6,5.568c.167.329.329.661.483,1s.3.678.429,1.03c-.248-.281-.476-.574-.7-.869s-.436-.6-.645-.9q-.625-.913-1.187-1.864T.913,2.027C.746,1.7.584,1.366.43,1.029S.128.352,0,0" transform="translate(32.044 42.142)"/><path class="n" d="M0,0C.376.107.741.234,1.1.367S1.827.643,2.183.79q1.068.444,2.1.953L4.8,2c.171.088.343.175.513.265s.34.179.508.273l.247.151.245.154c.326.207.649.419.968.64s.633.448.936.694c-.37-.124-.729-.268-1.085-.417s-.705-.308-1.053-.471l-.26-.124-.258-.127c-.177-.075-.351-.156-.527-.234s-.349-.161-.523-.242L4,2.312Q2.962,1.806,1.959,1.238C1.625,1.047,1.293.852.966.647S.315.231,0,0" transform="translate(35.121 39.556)"/><path class="n" d="M0,.047C.259.021.519.013.778.006S1.3,0,1.555,0C2.072,0,2.589.017,3.1.037Q4.652.1,6.192.241T9.266.589C9.777.66,10.288.737,10.8.825s1.018.182,1.525.3c-.52.022-1.037.02-1.554.014S9.736,1.113,9.22,1.09Q7.674,1.019,6.135.878T3.061.536C2.55.467,2.04.394,1.53.312S.511.138,0,.047" transform="translate(37.18 34.123)"/><path class="n" d="M0,2.65c1.259-.2,2.523-.345,3.787-.466s2.53-.213,3.8-.285l.949-.051c.306-.014.612-.046.916-.09a10.089,10.089,0,0,0,1.794-.429c.146-.05.292-.1.436-.158s.292-.118.44-.175q.442-.177.888-.348c.3-.113.594-.226.894-.333l.45-.161c.151-.051.3-.1.453-.154-.137.083-.275.161-.413.242l-.416.235c-.277.156-.557.307-.837.458s-.561.3-.844.444-.571.3-.871.421a8.8,8.8,0,0,1-1.876.558,9.29,9.29,0,0,1-.975.122l-.951.058q-1.9.107-3.8.147C2.545,2.707,1.275,2.71,0,2.65" transform="translate(36.557 27.167)"/><path class="n" d="M0,2.575c.388-.172.782-.321,1.177-.466S1.97,1.831,2.37,1.7q1.2-.383,2.415-.7L5.393.854C5.6.8,5.8.757,6,.706c.407-.1.814-.2,1.224-.283S8.05.254,8.464.181,9.295.044,9.717,0c-.385.178-.777.334-1.17.485s-.79.29-1.188.424-.8.261-1.2.383c-.2.063-.4.115-.6.172l-.608.161q-1.217.314-2.452.563c-.412.081-.825.157-1.241.224S.423,2.537,0,2.575" transform="translate(36.557 20.804)"/><path class="n" d="M0,7.1c.309-.308.632-.6.959-.883s.659-.561.995-.832.676-.537,1.02-.8l.256-.194c.083-.063.165-.128.246-.193.163-.13.322-.265.475-.406s.306-.283.452-.432.29-.3.428-.456c.069-.078.138-.157.2-.237l.2-.245.2-.251.207-.249c.277-.331.559-.659.849-.981S7.083.3,7.4,0c-.2.387-.423.761-.648,1.131s-.46.733-.7,1.093l-.18.269-.183.267c-.06.088-.124.181-.191.27s-.134.178-.2.265c-.139.174-.287.341-.438.5s-.313.317-.478.467-.337.292-.514.427c-.089.067-.179.133-.27.2s-.178.124-.268.185q-.535.364-1.08.714c-.364.232-.732.46-1.1.68S.39,6.9,0,7.1" transform="translate(33.419 12.913)"/><path class="n" d="M0,15.706c.372-1.309.8-2.594,1.252-3.872q.338-.958.694-1.909l.179-.475.085-.231c.026-.078.054-.155.078-.233a9.523,9.523,0,0,0,.256-.947A9.09,9.09,0,0,0,2.7,7.072a9.688,9.688,0,0,0,.065-.98c.012-.677.027-1.354.052-2.031C2.87,2.708,2.939,1.354,3.073,0c.133,1.354.2,2.708.251,4.061.025.677.04,1.354.052,2.031a9.4,9.4,0,0,1-.044,1.047,9.4,9.4,0,0,1-.164,1.036,9.669,9.669,0,0,1-.283,1.01c-.028.083-.059.165-.089.247l-.1.244-.192.47q-.387.939-.791,1.871C1.177,13.259.618,14.494,0,15.706" transform="translate(28.971 2.711)"/><path class="n" d="M4.765,14.247c-.319-1.236-.574-2.482-.811-3.73q-.177-.936-.333-1.876l-.077-.47-.039-.227c-.015-.075-.029-.151-.045-.226-.063-.3-.138-.6-.23-.891s-.192-.583-.31-.866-.247-.562-.389-.834l-.053-.1-.056-.1-.112-.21-.223-.421-.221-.422-.218-.423C1.067,2.313.506,1.172,0,0,.738,1.042,1.42,2.115,2.085,3.2l.248.407.245.409.244.409.121.205.06.1.061.106a9.338,9.338,0,0,1,.439.88,9.545,9.545,0,0,1,.339.924,9.578,9.578,0,0,1,.237.955c.015.081.028.162.042.242l.036.243.063.472q.124.944.23,1.891c.139,1.263.259,2.529.315,3.8" transform="translate(19.997 4.169)"/><path class="n" d="M4.172,12.567c-.29-.477-.559-.963-.823-1.451s-.517-.982-.766-1.477c-.124-.248-.247-.5-.368-.745-.06-.125-.122-.249-.181-.374l-.089-.187c-.03-.062-.061-.128-.09-.193-.118-.26-.221-.527-.314-.8-.046-.135-.087-.272-.127-.41q-.029-.1-.056-.207l-.052-.2Q.9,4.911.564,3.283C.453,2.74.348,2.2.252,1.649S.067.554,0,0C.2.52.382,1.046.557,1.573s.337,1.057.5,1.588q.472,1.594.874,3.206l.05.2q.024.1.051.194c.035.129.074.257.114.385.079.256.172.507.271.756l.317.762c.106.256.209.513.312.77.2.515.4,1.032.594,1.554s.374,1.046.537,1.579" transform="translate(13.789 7.009)"/><path class="n" d="M7.066,6.989c-.41-.135-.809-.29-1.206-.45q-.3-.121-.592-.248c-.1-.041-.2-.085-.294-.128s-.2-.091-.3-.139A8.181,8.181,0,0,1,2.542,4.5,8.061,8.061,0,0,1,1,2.369L.93,2.222.862,2.077c-.045-.1-.09-.194-.133-.291Q.6,1.493.471,1.2C.3.8.142.408,0,0,.264.341.508.694.747,1.048q.178.267.351.536c.058.09.115.18.172.27l.085.135.085.131A11.44,11.44,0,0,0,2.993,4.044a11.617,11.617,0,0,0,1.93,1.544c.089.054.176.11.265.166s.183.11.274.167q.273.168.543.341c.359.233.716.47,1.062.728" transform="translate(6.722 15.101)"/><path class="n" d="M7.387,5.247C7,5.179,6.616,5.09,6.237,4.995s-.755-.2-1.128-.311l-.14-.043-.143-.047c-.095-.032-.19-.063-.284-.1-.186-.074-.374-.145-.555-.232-.091-.042-.183-.084-.272-.13L3.45,3.993c-.09-.046-.174-.1-.26-.153s-.173-.1-.256-.16a8.358,8.358,0,0,1-.952-.738c-.038-.033-.074-.067-.11-.1l-.108-.1c-.072-.07-.145-.139-.211-.214L1.35,2.3c-.066-.075-.128-.154-.192-.231s-.126-.155-.184-.237S.857,1.671.8,1.589.691,1.422.638,1.338L.559,1.211c-.025-.043-.049-.086-.074-.13L.343.82C.3.731.258.641.217.551L.155.416.1.278C.067.185.031.093,0,0A16.474,16.474,0,0,0,1.53,1.73c.27.266.556.513.847.751.075.057.148.116.222.175l.055.044.057.041.114.083c.149.115.306.217.462.323.077.054.158.1.237.152s.158.1.24.147l.243.143c.082.047.166.088.248.134l.124.067c.041.023.084.042.126.063.085.041.169.084.253.126s.172.077.258.117l.129.059.133.058c.357.156.712.317,1.064.488s.7.348,1.042.546" transform="translate(3.689 22.091)"/><path class="n" d="M5.113.113A5.284,5.284,0,0,1,4.49.337C4.282.4,4.072.451,3.861.5A11.732,11.732,0,0,1,2.59.7,11.605,11.605,0,0,1,1.305.774C1.089.772.873.765.656.748.547.739.438.729.329.715S.11.684,0,.66C.1.613.206.574.31.537s.208-.07.312-.1c.209-.063.419-.115.629-.163a11.61,11.61,0,0,1,1.271-.2A11.733,11.733,0,0,1,3.808,0c.216,0,.432.009.649.025a5.293,5.293,0,0,1,.656.087" transform="translate(5.385 32.196)"/><path class="n" d="M3.221,0A2.955,2.955,0,0,1,2.9.364q-.172.165-.356.31a6.1,6.1,0,0,1-.771.516,6.029,6.029,0,0,1-.839.4Q.71,1.67.48,1.732c-.077.02-.155.039-.235.055A2.125,2.125,0,0,1,0,1.823a2.134,2.134,0,0,1,.157-.192c.054-.06.111-.117.168-.173q.172-.165.356-.31A6.04,6.04,0,0,1,1.453.633a6.111,6.111,0,0,1,.839-.4q.219-.083.449-.146A2.954,2.954,0,0,1,3.221,0" transform="translate(8.646 36.951)"/><path class="n" d="M2.531,0c-.123.288-.265.563-.411.835l-.215.4c-.065.136-.139.265-.2.4l-.1.2c-.033.067-.062.135-.094.2-.063.134-.122.271-.18.407s-.112.274-.168.411c-.025.07-.052.138-.078.207l-.039.1c-.013.035-.024.07-.036.1a15.161,15.161,0,0,0-.5,1.707C.5,5.052.481,5.125.464,5.2s-.029.147-.045.22c-.033.147-.058.3-.086.444-.016.074-.027.149-.04.225s-.026.151-.041.226q-.037.229-.089.459Q.111,6.543.073,6.313C.062,6.236.052,6.159.042,6.081S.023,5.925.018,5.847L0,5.612c0-.039,0-.078,0-.118V5.377c0-.157.006-.314.016-.471s.031-.313.049-.47C.077,4.358.09,4.28.1,4.2s.027-.156.045-.232a7.215,7.215,0,0,1,.258-.911A7,7,0,0,1,1.272,1.38c.022-.032.044-.065.068-.1l.072-.094c.048-.062.1-.125.145-.186.1-.12.2-.24.31-.352C2.079.428,2.3.207,2.531,0" transform="translate(10.093 41.645)"/><path class="n" d="M1.762,0C1.7.437,1.62.868,1.533,1.3s-.186.855-.288,1.279c-.052.212-.1.424-.16.635-.028.106-.054.212-.083.317l-.079.308c-.022.1-.048.205-.069.309s-.044.206-.06.31l-.028.155c-.009.052-.016.1-.025.156s-.017.1-.023.156L.7,5.08A11.411,11.411,0,0,0,.669,7.609L.7,7.927c.013.108.028.217.039.325.025.217.048.435.07.652.041.436.077.873.089,1.315C.753,9.8.626,9.384.5,8.963c-.06-.211-.118-.421-.174-.633C.3,8.225.276,8.119.249,8.013S.2,7.8.173,7.687A8.17,8.17,0,0,1,.064,5l.023-.168c.008-.056.018-.111.027-.167Q.139,4.5.175,4.334.244,4,.339,3.679l.1-.321c.034-.1.071-.206.106-.31.071-.206.144-.412.219-.617.15-.41.3-.819.469-1.225S1.57.4,1.762,0" transform="translate(15.229 43.733)"/><path class="n" d="M.054,0c.1.364.184.731.26,1.1s.139.735.2,1.1Q.685,3.306.788,4.418t.14,2.23c.01.373.015.746.01,1.121S.92,8.518.885,8.895c-.1-.364-.185-.73-.26-1.1s-.139-.735-.2-1.1Q.253,5.589.151,4.477T.012,2.247C0,1.874,0,1.5,0,1.126S.019.377.054,0" transform="translate(22.326 45.94)"/></g></g><g transform="translate(128.301 68.251) rotate(48)"><g class="o" transform="translate(0 0)"><path class="p" d="M11.386,95.124l1.527,5.957,2.516,4,1.542,3.444,1.62,2.327h.838l-3.294-9.408L9.815,73.755l-5.2-32L3.136,29.491,4.388,16.942l2.484-9.1L7.174,0S5.049,8.523,3.942,8.411,0,24.733,0,24.733-.006,35.806,1.118,37.9,4.251,61.2,4.332,61.441l2.739,12.74L9.714,87.4Z" transform="translate(6.394 4.778)"/><path class="q" d="M0,11.128l1.35,1.44L3.885,9.892,5.87,6.206s.324-3.492.709-3.883S6.344,0,6.344,0L4.667,1.921,2.678,5.232S2.139,7.62,2,7.968s-2,3.16-2,3.16" transform="translate(16.369 68.993)"/><path class="q" d="M0,11.72.192,9.113l1.55-1.77L3.931,5.091l.827-2.007L5.77,0l.67,4.334L5.14,8.562,2.09,10.876Z" transform="translate(16.925 58.903)"/><path class="q" d="M0,12.168l.885-2.7L2.453,6.246l2.89-3.31L6.321,0l.693,5.209L4.346,9.759,2.254,13.276.9,14.313Z" transform="translate(14.809 50.497)"/><path class="q" d="M.679,9.518l2.532-3.84L5.64,2.824,7.23,0,6.577,6.99l-2.22,3.781L0,13.131Z" transform="translate(13.465 39.7)"/><path class="q" d="M0,10.939,1.452,6.7,5.313,3.09,6.711,0l.52,4.6L5.3,8.348,3.045,10.479Z" transform="translate(10.72 33.194)"/><path class="q" d="M.157,10.446S1.849,6.556,2.329,6.2,4.5,4.416,4.5,4.416L7.512,0,7.351,4.748,5.121,8.493,2.895,11.018,0,12.266Z" transform="translate(10.425 24.288)"/><path class="q" d="M0,11.823c.789-.633,1.069-4.1,1.069-4.1l3.258-2.5L6.185,2.692,7.372,0,6.838,5.073,4.372,9.655,2.014,12.062Z" transform="translate(10.911 12.774)"/><path class="q" d="M.459,12.5a28.96,28.96,0,0,1-.429-4.45C.2,7.441,2.146,3.619,2.146,3.619L4.529,0,4.323,6.9l-.109,3.793Z" transform="translate(14.32 0)"/><path class="q" d="M5.244,9.957,4.063,3.8,3,0,.34,3.257,0,6.507,1.67,9.166Z" transform="translate(1.64 10.758)"/><path class="q" d="M5.443,10.9,3.564,4.954.419,0,0,3.58.6,9.959,2.306,15l2.588,3.936Z" transform="translate(0.514 22.045)"/><path class="q" d="M6.923,9.585c.767-.5-3.42-4-3.42-4L0,0,.606,6.256l2.01,3.178,3.4,3.626Z" transform="translate(0.361 40.094)"/><path class="q" d="M8.868,7.9,3.1,4.43.533,0,0,1.894l2.3,5,4.245,4.885,3.644,1.246.295-3.144Z" transform="translate(0 49.988)"/><path class="q" d="M0,0,1.152,4.5l3.777,6.506,2.6,2.778L11,14.147l-1.69-3.519L7.823,7.583,4.6,5.773S2.936,4.407,2.85,4.016,1.037.352,1.037.352Z" transform="translate(0.298 56.926)"/><path class="q" d="M0,0,1.982,3.788,6.241,7.563,8.108,9.885l2.669,3.635,1.313-.692-1.956-4.78L6.665,3.966,2.282,2.572Z" transform="translate(1.41 71.148)"/></g></g><g transform="matrix(0.087, 0.996, -0.996, 0.087, 137.529, 118.602)"><g class="r"><path class="s" d="M.073.062C.034,0,.01-.015,0,.017.1.139.134.162.073.062" transform="translate(32.394 13.897)"/><path class="s" d="M32.394,13.914C31.442,12.8,24.28,3.291,24.28,3.291L15.981.13,7.9,0,0,9.687,2.139,24.64l5.4,10.917,20.637.829s7.206-9.788,7.071-10.669c-.127-.825-3-11.318-2.85-11.8M18.456,28.607l-8.417-3.2L8.576,19.634l8.314-5.989.216,1.052,2.274,2.546,2.066,4.789Z" transform="translate(0 0)"/><path class="g" d="M11.638,0,3.026,1.254,0,5.757,5.141,10.2l8.487-1.479Z" transform="translate(7.937 12.842)"/></g></g></g></svg>