<svg xmlns="http://www.w3.org/2000/svg" xmlns:xlink="http://www.w3.org/1999/xlink" width="80" height="109" viewBox="0 0 80 109"><defs><style>.a{fill:#fff;}.b{filter:url(#a);}</style><filter id="a" x="0" y="0" width="80" height="109" filterUnits="userSpaceOnUse"><feOffset dy="2" input="SourceAlpha"/><feGaussianBlur stdDeviation="1.5" result="b"/><feFlood flood-opacity="0.353"/><feComposite operator="in" in2="b"/><feComposite in="SourceGraphic"/></filter></defs><g transform="translate(4.499 2.501)"><g class="b" transform="matrix(1, 0, 0, 1, -4.5, -2.5)"><rect class="a" width="71" height="100" transform="translate(4.5 2.5)"/></g><g transform="translate(14.517 13.704)"><path d="M274.525,451.844H270.6v-8.219h-1.687v9.638h5.609Z" transform="translate(-268.916 -403.604)"/><path d="M319.3,449.823v-6.2h-1.686v6.05a2.2,2.2,0,1,1-4.391,0v-6.05h-1.673v6.2c0,2.222,1.446,3.614,3.869,3.614S319.3,452.045,319.3,449.823Z" transform="translate(-301.484 -403.603)"/><path d="M376.075,452.787V443h-.027l-4.484,4.98L367.08,443h-.027v9.785h1.62v-5.93l.375.375,2.517,2.9c.843-.964,1.687-1.928,2.517-2.9l.388-.375v5.93Z" transform="translate(-343.883 -403.127)"/><path d="M428.251,443H428.2l-4.565,9.785H425.4l.619-1.436h4.417l.613,1.436h1.767Zm-1.683,7.073,1.669-3.874,1.654,3.874Z" transform="translate(-387.105 -403.127)"/><path d="M270.665,531.8h-1.687v9.638h5.609v-1.419h-3.922Z" transform="translate(-268.963 -470.959)"/><path d="M321.654,537.246h3.708v-1.379h-3.708v-2.65h4.377V531.8h-6.064v9.638h6.264v-1.419h-4.578Z" transform="translate(-307.914 -470.959)"/><path d="M372.653,531.174l-4.564,9.785h1.767l.619-1.436h4.417l.613,1.436h1.767l-4.564-9.785Zm-1.629,7.073,1.669-3.874,1.654,3.874Z" transform="translate(-344.675 -470.482)"/><path d="M430.467,541.436h1.687v-4.083h3.427v-1.405h-3.427v-2.731h4.069V531.8h-5.756Z" transform="translate(-392.326 -470.959)"/><path d="M329.268,274.11h-7.694v24.238l10.579-.007v4.867H316.681V280.12h-1.413v24.5h18.3v-7.695l-10.579.007V275.524h4.868v17.014h9.976v6.178h1.413v-7.592h-9.976Z" transform="translate(-304.324 -274.11)"/><g transform="translate(43.321 68.254)"><path d="M453.645,563.2a1.234,1.234,0,1,1-1.24,1.233A1.2,1.2,0,0,1,453.645,563.2Zm0,2.314a1.081,1.081,0,1,0-1.081-1.081A1.045,1.045,0,0,0,453.645,565.516Zm.013-.922h-.265v.511h-.186v-1.34h.444c.3,0,.5.153.5.418a.4.4,0,0,1-.312.385l.365.537H454Zm-.007-.159c.2,0,.312-.093.312-.252s-.113-.252-.312-.252h-.259v.5Z" transform="translate(-452.405 -563.202)"/></g><path d="M358.519,502.282a2.91,2.91,0,0,0,.177-1.151h-.671a2.3,2.3,0,0,1-.116.87c-.693-.89-1.348-1.741-1.452-1.9l0-.005a.409.409,0,0,1,.013-.483.461.461,0,0,1,.312-.152,1.493,1.493,0,0,1,.722.139v-.713a1.921,1.921,0,0,0-.805-.091,1.125,1.125,0,0,0-.746.389,1.057,1.057,0,0,0-.238.633,1.113,1.113,0,0,0,.181.645c.016.025.041.06.073.105a2.3,2.3,0,0,0-.588.8,1.512,1.512,0,0,0-.079.932,1.6,1.6,0,0,0,.457.779,1.512,1.512,0,0,0,.708.393,1.715,1.715,0,0,0,.361.038,1.739,1.739,0,0,0,1.1-.4c.048.062.161.187.2.242h.853c-.169-.215-.422-.519-.614-.764A2.18,2.18,0,0,0,358.519,502.282Zm-1.917.535a.861.861,0,0,1-.385-.222.941.941,0,0,1-.269-.451,1.106,1.106,0,0,1,.419-1.039c.326.428.761.989,1.146,1.482A1.065,1.065,0,0,1,356.6,502.817Z" transform="translate(-334.872 -445.737)"/></g></g></svg>