<svg xmlns="http://www.w3.org/2000/svg" xmlns:xlink="http://www.w3.org/1999/xlink" width="105.113" height="105.113" viewBox="0 0 105.113 105.113"><defs><style>.a,.c,.d{fill:none;stroke-linecap:round;stroke-linejoin:round;stroke-width:1.5px;}.a{stroke:#707070;}.b{clip-path:url(#a);}.c,.d{stroke:#000;}.c{stroke-miterlimit:10;}</style><clipPath id="a"><rect class="a" width="105.113" height="105.113"/></clipPath></defs><g class="b"><circle class="c" cx="51.947" cy="51.947" r="51.947" transform="translate(-20.908 52.556) rotate(-45)"/><path class="d" d="M123.5,186.713c-12.111-4.76-24.922-3.43-34.233,14.071,10.011-7.281,23.8-13.721,36.823-5.04-16.592-5.74-26.462,1.33-41.233,11.2,11.2-2.59,19.191,1.155,22.542,1.75,1.26.28,29.193,6.72,40.673-20.442C142.054,190.283,138.413,192.944,123.5,186.713Z" transform="translate(-58.993 -128.153)"/><path class="d" d="M100.345,87.176c-8.5,4.815-13.786,12.919-7.978,26.627.486-9.284,3.25-20.376,14.472-23.868C95.644,96.9,95.1,106,93.876,119.289c3.785-7.76,9.749-10.651,11.681-12.325.759-.6,17.725-13.855,7.306-33.4C111.2,78.04,111.031,81.422,100.345,87.176Z" transform="translate(-62.511 -51.143)"/></g></svg>