<svg xmlns="http://www.w3.org/2000/svg" xmlns:xlink="http://www.w3.org/1999/xlink" width="116.111" height="94.734" viewBox="0 0 116.111 94.734"><defs><style>.a{fill:none;}.b{clip-path:url(#a);}.c{fill:#9cd9e0;}.d{fill:gold;}.e{clip-path:url(#b);}.f{fill:#ffcccd;}.g{fill:#fff8f8;}</style><clipPath id="a"><rect class="a" width="44.313" height="46.119"/></clipPath><clipPath id="b"><rect class="a" width="55.388" height="57.645"/></clipPath></defs><g transform="translate(0.001 0)"><g transform="matrix(0.602, -0.799, 0.799, 0.602, 52.609, 66.978)"><g class="b"><path class="c" d="M.067.1C.133.035.142,0,.1,0-.017.155-.036.2.067.1" transform="translate(32.179 39.595)"/><path class="c" d="M32.28,39.595c1.077-1.426,10.473-12.445,10.473-12.445l1.561-10.693L42.332,6.825,28.736,0l-17.2,6.493L0,15.79,4.471,40.522S18,46.494,19.013,46.1c.947-.369,12.651-6.553,13.267-6.506M11.142,26.924l1.579-10.845,6.468-3.263L28.5,21.109l-1.193.534-2.422,3.375-5.142,3.72Z" transform="translate(0 0)"/><path class="d" d="M0,7.753l2.352,6.571,6.643-1.1L11.677,5.7,6.8,0,1.271,3.178Z" transform="translate(12.892 14.142)"/></g></g><g transform="matrix(0.799, -0.602, 0.602, 0.799, -0.001, 33.333)"><g class="e"><path class="f" d="M.073.067C-.009.146-.02.186.032.19.178,0,.2-.057.073.067" transform="translate(15.01 7.965)"/><path class="f" d="M31.624.023C32.887-.469,49.8,7,49.8,7l5.589,30.913L40.963,49.529,19.47,57.645,2.477,49.114,0,37.076,1.951,23.711S13.7,9.937,15.041,8.155c.769.059,15.4-7.67,16.582-8.131m-.913,21.7-6.427,4.65-3.028,4.218-1.491.668L31.4,41.625l8.084-4.078,1.973-13.555Z" transform="translate(0 0)"/><path class="g" d="M14.595,8.213,11.655,0l-8.3,1.374L0,10.776,6.092,17.9l6.914-3.972Z" transform="translate(24.679 22.065)"/></g></g></g></svg>