<svg xmlns="http://www.w3.org/2000/svg" xmlns:xlink="http://www.w3.org/1999/xlink" width="105.113" height="105.113" viewBox="0 0 105.113 105.113"><defs><style>.a,.c{fill:none;stroke-linecap:round;stroke-linejoin:round;stroke-width:1.5px;}.a{stroke:#707070;}.b{clip-path:url(#a);}.c{stroke:#000;stroke-miterlimit:10;}</style><clipPath id="a"><rect class="a" width="105.113" height="105.113"/></clipPath></defs><g class="b"><circle class="c" cx="51.947" cy="51.947" r="51.947" transform="translate(-7.173 95.327) rotate(-80.606)"/><path class="c" d="M163.47,161.816,153.283,172a1.137,1.137,0,0,1-1.6,0l-2.194-2.194" transform="translate(-103.922 -112.493)"/><path class="c" d="M163.47,148.331l-10.187,10.187a1.137,1.137,0,0,1-1.6,0l-2.194-2.194" transform="translate(-103.922 -103.119)"/><path class="c" d="M163.47,134.845l-10.187,10.187a1.137,1.137,0,0,1-1.6,0l-2.194-2.194" transform="translate(-103.922 -93.743)"/><path class="c" d="M131.521,86.461c-4.85,7.518-17.935,6.159-17.935,6.159v22.664a22.96,22.96,0,0,0,11.545,19.921l6.389,3.661,6.389-3.661a22.96,22.96,0,0,0,11.545-19.921V92.62S136.371,93.979,131.521,86.461Z" transform="translate(-78.964 -60.107)"/></g></svg>