<svg xmlns="http://www.w3.org/2000/svg" width="148.955" height="23.666" viewBox="0 0 148.955 23.666"><g transform="translate(-1005 -9291.928)"><g transform="translate(1005 9292.234)"><path d="M97.82,132.7a6.212,6.212,0,0,0-6.309-5.867c-.327-.016-.652-.053-.979-.081h-8.11c-.491.044-.983.075-1.472.133a6.214,6.214,0,0,0-5.869,6.308c-.016.327-.053.654-.081.981v8.11c.044.491.076.984.133,1.474a6.213,6.213,0,0,0,6.309,5.867c.327.016.653.053.979.081h8.11c.491-.044.983-.075,1.472-.133a6.213,6.213,0,0,0,5.869-6.307c.016-.328.053-.654.081-.981v-8.11C97.91,133.681,97.878,133.188,97.82,132.7Zm-6.112,14.784c-3.482.159-6.984.164-10.465,0-2.646-.126-3.992-1.721-4.084-4.421-.081-2.394-.08-4.79-.077-7.186a26.354,26.354,0,0,1,.159-3.242c.292-2.328,1.842-3.643,4.422-3.725,2.394-.077,4.791-.082,7.186-.072a22.645,22.645,0,0,1,3.428.2,3.818,3.818,0,0,1,3.441,3.674c.143,1.634.118,3.283.166,4.925.006.2,0,.408,0,.612l0,2.327c-.016.946-.042,1.89-.126,2.83C95.53,145.986,94.275,147.365,91.708,147.482Z" transform="translate(-75 -126.75)"/><path d="M135.643,181.486a5.893,5.893,0,1,0,5.879,5.888A5.876,5.876,0,0,0,135.643,181.486Zm-.029,9.717a3.824,3.824,0,1,1,3.839-3.8A3.836,3.836,0,0,1,135.614,191.2Z" transform="translate(-124.152 -175.902)"/><path d="M235.41,165.7a1.379,1.379,0,1,0,1.366,1.4A1.374,1.374,0,0,0,235.41,165.7Z" transform="translate(-217.796 -161.729)"/></g><g transform="translate(1046 9291.928)"><path d="M496.1,143.44v-8.29h2.77l.536-3.467H496.12a.472.472,0,0,1-.027-.1c0-.752-.011-1.5.017-2.256a1.6,1.6,0,0,1,1.619-1.686c.585-.044,1.176-.008,1.784-.008v-2.988c-.384-.05-.772-.111-1.163-.148a8.568,8.568,0,0,0-2.776.052,3.881,3.881,0,0,0-3.124,3.312,7.453,7.453,0,0,0-.1,1.271c-.015.837,0,1.674,0,2.54h-3.009v3.466h3v8.3a11.9,11.9,0,1,1,3.764,0Z" transform="translate(-482.309 -119.774)"/></g><g transform="translate(1088 9293.255)"><path d="M913.287,138.612c-.267.365-.512.748-.806,1.091a8.5,8.5,0,0,1-1.509,1.379c-.08.057-.155.122-.243.192a15.15,15.15,0,0,1-2.583,9.238,14.966,14.966,0,0,1-6.043,5.127,14.8,14.8,0,0,1-14.447-.986,9.478,9.478,0,0,0,4.063-.32,10.461,10.461,0,0,0,3.619-1.926,5.172,5.172,0,0,1-4.872-3.58,5.477,5.477,0,0,0,2.182-.175,5.329,5.329,0,0,1-4.008-5.17c.359.135.706.287,1.068.4a2.483,2.483,0,0,0,1.135.11c-2.21-1.961-2.856-4.232-1.506-6.982.112.117.208.208.295.308a14.887,14.887,0,0,0,7.151,4.66,14.445,14.445,0,0,0,2.97.542c.152.012.305,0,.5,0-.02-.26-.033-.483-.054-.706a5.682,5.682,0,0,1,.347-2.553,4.657,4.657,0,0,1,2.5-2.672,5.228,5.228,0,0,1,5.461.41,3.2,3.2,0,0,1,.591.487.537.537,0,0,0,.613.164c.542-.168,1.086-.333,1.612-.541.434-.171.844-.4,1.264-.605,0,.693-.7,1.635-2.112,2.809.25-.02.443-.021.632-.052a7.763,7.763,0,0,0,1.874-.555,1.929,1.929,0,0,1,.319-.081Z" transform="translate(-887.656 -136.008)"/></g><g transform="translate(1131 9292.336)"><path d="M439.541,466.624c1.172-1.644,1.384-3.583,1.934-5.431a7.386,7.386,0,0,0,.876.716,4.435,4.435,0,0,0,4.65-.137,6.824,6.824,0,0,0,3.258-4.881,7.2,7.2,0,0,0-.471-5.112,6.886,6.886,0,0,0-5.985-3.716,8.14,8.14,0,0,0-6.956,2.582,6.508,6.508,0,0,0-1.451,6.809,3.384,3.384,0,0,0,1.787,2.061c.484.228.656.134.816-.378a1.881,1.881,0,0,0-.212-1.784,4.25,4.25,0,0,1,0-4.238,5.5,5.5,0,0,1,5.746-3.08,7.066,7.066,0,0,1,1.669.415,3.747,3.747,0,0,1,2.4,3.172,8.194,8.194,0,0,1-.9,4.984,3.26,3.26,0,0,1-2.245,1.837,1.794,1.794,0,0,1-2.189-2.256c.271-1.084.6-2.153.885-3.233a3.152,3.152,0,0,0,.082-.806,1.524,1.524,0,0,0-.843-1.509,1.613,1.613,0,0,0-1.774.216A2.934,2.934,0,0,0,439.542,456a6.882,6.882,0,0,1-.219,3.471c-.343,1.434-.7,2.865-1,4.309-.15.743-.166,1.514-.242,2.262a11.321,11.321,0,0,1-6.439-13.2,11.474,11.474,0,1,1,7.894,13.775Z" transform="translate(-431.298 -444.167)"/></g></g></svg>