<svg xmlns="http://www.w3.org/2000/svg" xmlns:xlink="http://www.w3.org/1999/xlink" width="150.953" height="149.69" viewBox="0 0 150.953 149.69"><defs><style>.a{fill:none;}.b{fill:#007737;}.c{clip-path:url(#a);}.d{fill:#6cb33d;}</style><clipPath id="a"><rect class="a" width="80.734" height="131.885"/></clipPath></defs><g transform="matrix(-0.695, -0.719, 0.719, -0.695, 56.082, 149.69)"><path class="b" d="M4.3.455,0,4.419v7.687l11.679,7.645,44.563-2.826-7-7.476-15.9-5.957L16,0Z" transform="translate(0.955 112.135)"/><g class="c"><path class="b" d="M7.815,48.6,18.73,29.983l7.329-10.2L27.025,9.8,22.1.658,9.655,0S6.186,10.045,5.614,10.973-.029,24.264,0,25.244,0,39.41,0,39.41l5.834,9.733Z" transform="translate(41.027 54.153)"/><path class="b" d="M34.186,26.782,3.043,22.135,0,8.59,4.3,2.356,12.634,0S21.3,4.94,21.987,5.451s10.4,4.524,11.428,7.771,4.8,12.531,4.8,12.531l-4.03,1.03" transform="translate(0 80.621)"/><path class="b" d="M23.368,42.14,12.121,35.208,5.411,26.152,0,13.788.765,3.373,14.442,0,21.33,7.981l4.007,14.044L27.388,33.58Z" transform="translate(5.57 39.656)"/><path class="b" d="M7.265,31.872l-5.8-15.179L0,5.932,2.87.734,10.274,0,17,8.38,16.488,24.5,13.872,35.733l-4.6-1.247Z" transform="translate(24.029 23.14)"/><path class="b" d="M5.24,38.848l20.445-9.635,6.425-6.491L39.332,1.4,27.594,0,22.887,8.4,8.962,25.18,0,35.155Z" transform="translate(41.402 18.075)"/><path class="b" d="M16.56,0,26.1,3.973,21.632,20.76,10.848,37.3,2.764,45.2,0,39.833,5.121,18.075l6.9-13.451Z" transform="translate(42.897 0)"/><path class="d" d="M41.153,5.743c-3.462-.221-6.915-.525-10.365-.858s-6.9-.7-10.338-1.091l-2.581-.3-2.58-.313-2.582-.327c-.435-.059-.869-.128-1.3-.209q-.323-.062-.645-.132l-.635-.14C6.742,1.628,3.363.855,0,0,3.432.51,6.847,1.1,10.257,1.724l.639.115q.316.056.633.105c.422.066.846.126,1.27.173l2.582.267,2.584.279,2.582.291q5.164.591,10.317,1.277c3.435.456,6.868.942,10.29,1.51" transform="translate(6.846 120.939)"/><path class="d" d="M25.021,13.752c-2.049-1.248-4.046-2.567-6.032-3.9C18,9.179,17.011,8.5,16.03,7.819a29.013,29.013,0,0,0-3.02-1.829q-.78-.414-1.587-.775c-.532-.242-1.09-.47-1.638-.708Q8.138,3.8,6.5,3.064C4.315,2.083,2.141,1.082,0,0,2.277.756,4.519,1.593,6.754,2.451q1.675.644,3.339,1.316c.555.224,1.108.443,1.669.686s1.1.508,1.641.79,1.065.585,1.58.906,1.019.661,1.51,1.019q1.45,1.063,2.881,2.143c1.907,1.446,3.8,2.908,5.647,4.442" transform="translate(6.846 89.544)"/><path class="d" d="M0,35.693c.114-3.1.311-6.2.537-9.289C.645,24.857.77,23.312.9,21.767l.2-2.316c.017-.193.034-.385.055-.582s.038-.392.064-.587q.07-.586.166-1.169.2-1.164.493-2.308c.2-.761.432-1.514.7-2.253s.566-1.468.9-2.179c.168-.358.337-.7.508-1.052L4.5,8.28C5.872,5.5,7.27,2.732,8.745,0,7.589,2.882,6.357,5.727,5.1,8.56l-.942,2.12c-.3.7-.58,1.414-.824,2.138s-.464,1.455-.648,2.2-.344,1.487-.468,2.24q-.1.564-.166,1.132c-.049.379-.084.755-.123,1.144l-.233,2.313c-.16,1.542-.323,3.083-.5,4.623C.841,29.545.462,32.623,0,35.693" transform="translate(48.452 60.726)"/><path class="d" d="M12.586,29.191C11.3,26.863,10.092,24.5,8.91,22.124S6.573,17.36,5.446,14.958l-.84-1.8-.83-1.808L2.956,9.533,2.55,8.621q-.2-.463-.38-.933c-.24-.627-.464-1.26-.652-1.9-.1-.323-.181-.644-.269-.963l-.262-.96C.647,2.577.3,1.294,0,0,.484,1.238.932,2.488,1.382,3.737l.33.939c.11.314.217.627.331.934.228.616.468,1.226.736,1.825s.56,1.182.852,1.781l.87,1.789.86,1.794.849,1.8Q7.9,18.2,9.5,21.845c1.07,2.428,2.114,4.869,3.082,7.345" transform="translate(15.607 47.142)"/><path class="d" d="M4.125,28.092c-.45-2.331-.811-4.672-1.153-7.015s-.639-4.7-.915-7.039Q2,13.6,1.936,13.172c-.044-.288-.1-.573-.147-.867l-.3-1.75C1.3,9.387,1.108,8.219.93,7.048.577,4.706.245,2.361,0,0,.593,2.3,1.1,4.613,1.584,6.93c.241,1.159.471,2.32.7,3.483l.331,1.744c.054.289.108.586.156.883s.091.594.129.892c.277,2.358.521,4.708.735,7.067s.4,4.72.5,7.092" transform="translate(31.867 26.061)"/><path class="d" d="M0,30.442c2.658-2.208,5.366-4.35,8.092-6.468l1.021-.8,1.026-.789,2.054-1.575,1.03-.784c.174-.13.336-.262.505-.392l.251-.2.245-.2c.162-.138.33-.267.488-.41l.479-.42c.311-.29.624-.576.923-.879a28,28,0,0,0,3.276-3.9q.727-1.048,1.359-2.159l.308-.559.293-.567c.2-.378.389-.769.583-1.153C23.48,6.11,25.054,3.037,26.7,0c-1.332,3.189-2.74,6.341-4.175,9.481-.181.393-.354.784-.541,1.179-.094.2-.189.394-.286.59l-.3.582q-.622,1.155-1.346,2.253c-.487.728-1.015,1.428-1.57,2.106s-1.153,1.32-1.773,1.94c-.309.311-.633.605-.955.9s-.658.579-1,.851l-.255.207-.261.2c-.174.132-.349.269-.522.4l-1.042.768-2.09,1.528-1.046.763L8.485,24.5C5.685,26.518,2.868,28.514,0,30.442" transform="translate(46.242 22.599)"/><path class="d" d="M0,34.167q.474-.9.962-1.785c.322-.594.652-1.184.98-1.774s.66-1.179.993-1.766.663-1.177,1-1.76c.676-1.169,1.348-2.341,2.033-3.5s1.373-2.326,2.066-3.485L8,20.179l.815-2.541L9.641,15.1q.834-2.534,1.7-5.059l.875-2.521c.29-.841.595-1.677.892-2.516.6-1.674,1.212-3.347,1.859-5.007-.448,1.725-.935,3.436-1.427,5.147-.251.853-.494,1.71-.752,2.561l-.768,2.556q-.781,2.551-1.588,5.094L9.616,17.9l-.829,2.536-.016.047-.024.04q-1.058,1.727-2.13,3.446c-.713,1.146-1.44,2.285-2.163,3.426-.36.572-.73,1.137-1.1,1.7s-.732,1.135-1.1,1.7-.74,1.13-1.118,1.691S.384,33.61,0,34.167" transform="translate(46.148 6.148)"/></g></g></svg>