<svg xmlns="http://www.w3.org/2000/svg" xmlns:xlink="http://www.w3.org/1999/xlink" width="63.501" height="63.145" viewBox="0 0 63.501 63.145"><defs><style>.a{fill:none;}.b{clip-path:url(#a);}.c{fill:#9cd9e0;}.d{fill:gold;}</style><clipPath id="a"><rect class="a" width="44.313" height="46.119"/></clipPath></defs><g transform="matrix(0.602, -0.799, 0.799, 0.602, 0, 35.39)"><g class="b"><path class="c" d="M.067.1C.133.035.142,0,.1,0-.017.155-.036.2.067.1" transform="translate(32.179 39.595)"/><path class="c" d="M32.28,39.595c1.077-1.426,10.473-12.445,10.473-12.445l1.561-10.693L42.332,6.825,28.736,0l-17.2,6.493L0,15.79,4.471,40.522S18,46.494,19.013,46.1c.947-.369,12.651-6.553,13.267-6.506M11.142,26.924l1.579-10.845,6.468-3.263L28.5,21.109l-1.193.534-2.422,3.375-5.142,3.72Z" transform="translate(0 0)"/><path class="d" d="M0,7.753l2.352,6.571,6.643-1.1L11.677,5.7,6.8,0,1.271,3.178Z" transform="translate(12.892 14.142)"/></g></g></svg>