<svg xmlns="http://www.w3.org/2000/svg" xmlns:xlink="http://www.w3.org/1999/xlink" width="78.927" height="79.371" viewBox="0 0 78.927 79.371"><defs><style>.a{fill:none;}.b{clip-path:url(#a);}.c{fill:#ffcccd;}.d{fill:#fff8f8;}</style><clipPath id="a"><rect class="a" width="55.388" height="57.645"/></clipPath></defs><g transform="matrix(0.799, -0.602, 0.602, 0.799, 0, 33.334)"><g class="b"><path class="c" d="M.073.067C-.009.146-.02.186.032.19.178,0,.2-.057.073.067" transform="translate(15.01 7.965)"/><path class="c" d="M31.624.023C32.887-.469,49.8,7,49.8,7l5.589,30.913L40.963,49.529,19.47,57.645,2.477,49.114,0,37.076,1.951,23.711S13.7,9.937,15.041,8.155c.769.059,15.4-7.67,16.582-8.131m-.913,21.7-6.427,4.65-3.028,4.218-1.491.668L31.4,41.625l8.084-4.078,1.973-13.555Z" transform="translate(0 0)"/><path class="d" d="M14.595,8.213,11.655,0l-8.3,1.374L0,10.776,6.092,17.9l6.914-3.972Z" transform="translate(24.679 22.065)"/></g></g></svg>