<svg xmlns="http://www.w3.org/2000/svg" xmlns:xlink="http://www.w3.org/1999/xlink" width="105.113" height="105.113" viewBox="0 0 105.113 105.113"><defs><style>.a,.c,.d{fill:none;stroke-linecap:round;stroke-width:1.5px;}.a{stroke:#707070;}.a,.c{stroke-linejoin:round;}.b{clip-path:url(#a);}.c,.d{stroke:#000;stroke-miterlimit:10;}</style><clipPath id="a"><rect class="a" width="105.113" height="105.113"/></clipPath></defs><g class="b"><circle class="c" cx="51.947" cy="51.947" r="51.947" transform="translate(-20.907 52.556) rotate(-45)"/><path class="c" d="M149.088,108.961l-1.21,2.125a5.578,5.578,0,0,0-.731,2.76v34.295a5.385,5.385,0,0,1-5.385,5.385H119.97a5.385,5.385,0,0,1-5.385-5.385V113.846a5.578,5.578,0,0,0-.731-2.76l-1.21-2.125" transform="translate(-78.31 -75.749)"/><path class="c" d="M119.012,191.482h9.093a7.473,7.473,0,0,0,6.734-4.232l.454-.943.414.88a7.473,7.473,0,0,0,6.764,4.294h9.1" transform="translate(-82.736 -129.519)"/><path class="c" d="M148.048,104.221a7.428,7.428,0,1,0,14.856,0c.151-5.654-7.427-14.537-7.427-14.537S147.806,98.627,148.048,104.221Z" transform="translate(-102.918 -62.348)"/><line class="d" y2="13.875" transform="translate(52.556 39.485)"/></g></svg>