<svg xmlns="http://www.w3.org/2000/svg" width="22.955" height="22.939" viewBox="0 0 22.955 22.939"><path d="M439.541,466.624c1.172-1.644,1.384-3.583,1.934-5.431a7.386,7.386,0,0,0,.876.716,4.435,4.435,0,0,0,4.65-.137,6.824,6.824,0,0,0,3.258-4.881,7.2,7.2,0,0,0-.471-5.112,6.886,6.886,0,0,0-5.985-3.716,8.14,8.14,0,0,0-6.956,2.582,6.508,6.508,0,0,0-1.451,6.809,3.384,3.384,0,0,0,1.787,2.061c.484.228.656.134.816-.378a1.881,1.881,0,0,0-.212-1.784,4.25,4.25,0,0,1,0-4.238,5.5,5.5,0,0,1,5.746-3.08,7.066,7.066,0,0,1,1.669.415,3.747,3.747,0,0,1,2.4,3.172,8.194,8.194,0,0,1-.9,4.984,3.26,3.26,0,0,1-2.245,1.837,1.794,1.794,0,0,1-2.189-2.256c.271-1.084.6-2.153.885-3.233a3.152,3.152,0,0,0,.082-.806,1.524,1.524,0,0,0-.843-1.509,1.613,1.613,0,0,0-1.774.216A2.934,2.934,0,0,0,439.542,456a6.882,6.882,0,0,1-.219,3.471c-.343,1.434-.7,2.865-1,4.309-.15.743-.166,1.514-.242,2.262a11.321,11.321,0,0,1-6.439-13.2,11.474,11.474,0,1,1,7.894,13.775Z" transform="translate(-431.298 -444.167)"/></svg>