<svg xmlns="http://www.w3.org/2000/svg" width="25.642" height="21.065" viewBox="0 0 25.642 21.065"><path d="M913.287,138.612c-.267.365-.512.748-.806,1.091a8.5,8.5,0,0,1-1.509,1.379c-.08.057-.155.122-.243.192a15.15,15.15,0,0,1-2.583,9.238,14.966,14.966,0,0,1-6.043,5.127,14.8,14.8,0,0,1-14.447-.986,9.478,9.478,0,0,0,4.063-.32,10.461,10.461,0,0,0,3.619-1.926,5.172,5.172,0,0,1-4.872-3.58,5.477,5.477,0,0,0,2.182-.175,5.329,5.329,0,0,1-4.008-5.17c.359.135.706.287,1.068.4a2.483,2.483,0,0,0,1.135.11c-2.21-1.961-2.856-4.232-1.506-6.982.112.117.208.208.295.308a14.887,14.887,0,0,0,7.151,4.66,14.445,14.445,0,0,0,2.97.542c.152.012.305,0,.5,0-.02-.26-.033-.483-.054-.706a5.682,5.682,0,0,1,.347-2.553,4.657,4.657,0,0,1,2.5-2.672,5.228,5.228,0,0,1,5.461.41,3.2,3.2,0,0,1,.591.487.537.537,0,0,0,.613.164c.542-.168,1.086-.333,1.612-.541.434-.171.844-.4,1.264-.605,0,.693-.7,1.635-2.112,2.809.25-.02.443-.021.632-.052a7.763,7.763,0,0,0,1.874-.555,1.929,1.929,0,0,1,.319-.081Z" transform="translate(-887.656 -136.008)"/></svg>